# xmcd
#
# Track frame offsets:
#	150
#	14265
#	29222
#	42997
#	53915
#	67392
#	83175
#	98310
#	110800
#	124447
#
# Disc length: 1892 seconds
#
# Revision: 2
# Processed by: cddbd v1.5.2PL0 Copyright (c) Steve Scherf et al.
# Submitted via: EZCDAudioConverter 6.0.5.1
#
DISCID=9007620a
DTITLE=Ray Kennedy - Guitar Man
DYEAR=1992
DGENRE=Country
TTITLE0=Complicated
TTITLE1=9/10THS Of The Law
TTITLE2=No Way Jose'
TTITLE3=All She Wants Is More
TTITLE4=Lone Won
TTITLE5=Back In The Cowboy Days
TTITLE6=The Man Who Never Was
TTITLE7=Easy Goin'
TTITLE8=It's Not Like You
TTITLE9=Guitar Man
EXTD=
EXTT0=
EXTT1=
EXTT2=
EXTT3=
EXTT4=
EXTT5=
EXTT6=
EXTT7=
EXTT8=
EXTT9=
PLAYORDER=
